<?xml version="1.0" encoding="utf-8"?>
<!-- Generator: Adobe Illustrator 24.0.1, SVG Export Plug-In . SVG Version: 6.00 Build 0)  -->
<svg version="1.1" xmlns="http://www.w3.org/2000/svg" xmlns:xlink="http://www.w3.org/1999/xlink" x="0px" y="0px"
	 viewBox="0 0 227.39 151.59" style="enable-background:new 0 0 227.39 151.59;" xml:space="preserve">
<style type="text/css">
	.st0{fill:#FFFFFF;}
</style>
<g id="Background">
</g>
<g id="Graphic_Elements">
	<g>
		<path class="st0" d="M52.92,52.02V64.8c-6.26,0-11.35-5.76-11.35-12.84H28.74c0,14.15,10.85,25.67,24.18,25.67V64.85
			c6.05,0,10.98,4.92,10.98,10.98c0,6.05-4.92,10.98-10.98,10.98s-10.98-4.93-10.98-10.98H29.11c0,13.13,10.68,23.81,23.81,23.81
			s23.81-10.68,23.81-23.81S66.04,52.02,52.92,52.02"/>
		<g>
			<path class="st0" d="M104.21,90.65c-2.76,0-5.09-0.63-7.02-1.88c-1.92-1.25-3.27-2.97-4.03-5.16l4.05-2.37
				c1.15,3.22,3.52,4.83,7.12,4.83c1.77,0,3.1-0.35,3.99-1.04c0.89-0.69,1.33-1.6,1.33-2.71c0-1.17-0.48-2.06-1.43-2.67
				s-2.65-1.29-5.08-2.02c-1.33-0.5-2.43-0.9-3.29-1.22c-0.86-0.32-1.76-0.8-2.7-1.44c-0.94-0.64-1.64-1.44-2.11-2.39
				c-0.46-0.96-0.7-2.07-0.7-3.36c0-2.54,0.9-4.55,2.7-6.04c1.8-1.49,3.97-2.23,6.51-2.23c2.29,0,4.3,0.56,6.02,1.68
				c1.72,1.12,3.04,2.66,3.97,4.62l-3.97,2.29c-1.2-2.67-3.21-4.01-6.02-4.01c-1.37,0-2.46,0.32-3.27,0.96
				c-0.82,0.64-1.23,1.51-1.23,2.6c0,1.04,0.42,1.86,1.26,2.46c0.84,0.6,2.35,1.24,4.55,1.9c1.07,0.4,1.86,0.7,2.35,0.89
				c0.5,0.19,1.21,0.46,2.14,0.81s1.63,0.72,2.09,1.11s0.95,0.87,1.48,1.45c0.53,0.58,0.9,1.24,1.12,1.99
				c0.22,0.75,0.32,1.59,0.32,2.53c0,2.59-0.93,4.65-2.8,6.16C109.68,89.9,107.23,90.65,104.21,90.65z"/>
			<path class="st0" d="M134.9,69.66h4.42v20.46h-4.42v-2.95c-1.66,2.32-4.05,3.48-7.16,3.48c-2.81,0-5.21-1.04-7.2-3.13
				c-1.99-2.09-2.99-4.63-2.99-7.63c0-3.03,1-5.58,2.99-7.65c1.99-2.07,4.39-3.11,7.2-3.11c3.11,0,5.5,1.15,7.16,3.44V69.66z
				 M123.81,84.58c1.23,1.24,2.77,1.86,4.62,1.86c1.85,0,3.4-0.62,4.62-1.86c1.23-1.24,1.84-2.8,1.84-4.69
				c0-1.88-0.61-3.44-1.84-4.69c-1.23-1.24-2.77-1.86-4.62-1.86c-1.86,0-3.4,0.62-4.62,1.86s-1.84,2.8-1.84,4.69
				C121.97,81.77,122.58,83.33,123.81,84.58z"/>
			<path class="st0" d="M155.24,69.13c2.35,0,4.24,0.75,5.69,2.25s2.17,3.56,2.17,6.18v12.56h-4.42V78.01c0-1.53-0.41-2.7-1.23-3.52
				c-0.82-0.82-1.94-1.23-3.36-1.23c-1.56,0-2.81,0.49-3.76,1.45c-0.96,0.97-1.43,2.45-1.43,4.44v10.97h-4.42V61.47h4.42v10.8
				C150.23,70.18,152.34,69.13,155.24,69.13z"/>
			<path class="st0" d="M179.42,69.13c2.81,0,5.21,1.04,7.2,3.11s2.99,4.62,2.99,7.65c0,3-1,5.54-2.99,7.63s-4.39,3.13-7.2,3.13
				c-3.11,0-5.5-1.16-7.16-3.48v2.95h-4.42V61.47h4.42v11.09C173.92,70.27,176.31,69.13,179.42,69.13z M174.1,84.58
				c1.23,1.24,2.77,1.86,4.62,1.86c1.85,0,3.4-0.62,4.62-1.86s1.84-2.8,1.84-4.69c0-1.88-0.61-3.44-1.84-4.69s-2.77-1.86-4.62-1.86
				c-1.86,0-3.4,0.62-4.62,1.86c-1.23,1.24-1.84,2.8-1.84,4.69C172.26,81.77,172.87,83.33,174.1,84.58z"/>
			<path class="st0" d="M197.82,65.75c-0.56,0.56-1.22,0.84-1.98,0.84c-0.76,0-1.43-0.28-1.99-0.84c-0.56-0.56-0.84-1.22-0.84-1.99
				c0-0.76,0.27-1.42,0.82-1.98c0.54-0.56,1.21-0.84,2.01-0.84c0.79,0,1.46,0.28,2,0.84c0.55,0.56,0.82,1.22,0.82,1.98
				C198.65,64.53,198.37,65.19,197.82,65.75z M193.62,90.12V69.66h4.42v20.46H193.62z"/>
		</g>
	</g>
</g>
</svg>
